<svg xmlns="http://www.w3.org/2000/svg" width="91" height="75" fill="none"><g fill="#AFD2D3" fill-rule="evenodd" clip-rule="evenodd" filter="url(#a)"><path d="M21.417 19.69h33.538c5.911 0 10.703 4.64 10.703 10.365v15.89c0 5.724-4.792 10.364-10.703 10.364H21.417c-5.911 0-10.703-4.64-10.703-10.363V30.055c0-5.724 4.792-10.364 10.703-10.364m44.5 29.357C64.531 53.642 60.147 57 54.954 57H21.417C15.112 57 10 52.05 10 45.946V30.055C10 23.949 15.112 19 21.417 19h33.538c5.987 0 10.898 4.463 11.378 10.14l9.885-5.369c2.14-1.162 4.782.335 4.782 2.712v24.712c0 2.298-2.486 3.802-4.619 2.794zm.455-18.992v18.438l10.322 4.875c1.659.784 3.592-.386 3.592-2.173V26.483c0-1.849-2.054-3.014-3.719-2.11l-10.195 5.538z"/><path d="M19.757 10.234a.357.357 0 0 1 .503.036l46.382 53.517a.357.357 0 0 1-.54.467L19.722 10.737a.357.357 0 0 1 .036-.503"/></g><defs><filter id="a" width="91" height="74.231" x="0" y=".146" color-interpolation-filters="sRGB" filterUnits="userSpaceOnUse"><feFlood flood-opacity="0" result="BackgroundImageFix"/><feColorMatrix in="SourceAlpha" result="hardAlpha" values="0 0 0 0 0 0 0 0 0 0 0 0 0 0 0 0 0 0 127 0"/><feOffset/><feGaussianBlur stdDeviation="5"/><feComposite in2="hardAlpha" operator="out"/><feColorMatrix values="0 0 0 0 0.83335 0 0 0 0 0.995371 0 0 0 0 1 0 0 0 1 0"/><feBlend in2="BackgroundImageFix" result="effect1_dropShadow_115_52"/><feBlend in="SourceGraphic" in2="effect1_dropShadow_115_52" result="shape"/></filter></defs></svg>