<svg xmlns="http://www.w3.org/2000/svg" width="500" height="500"><g class="layer"><ellipse cx="91" cy="155" fill="#f5f5f5" stroke="#afd2d3" stroke-dasharray="null" stroke-width="5" rx="63" ry="64"/><ellipse cx="409.5" cy="154" fill="#f5f5f5" stroke="#afd2d3" stroke-dasharray="null" stroke-width="5" rx="63" ry="64"/><ellipse cx="100.5" cy="164.5" fill="#afd2d3" stroke="#afd2d3" stroke-dasharray="null" rx="43" ry="42.5"/><ellipse cx="397.5" cy="167" fill="#afd2d3" stroke="#afd2d3" stroke-dasharray="null" rx="43" ry="42.5"/></g><g class="layer"><ellipse cx="245.5" cy="274" fill="#f5f5f5" stroke="#afd2d3" stroke-width="5" rx="172.5" ry="167"/><ellipse cx="244" cy="359.5" fill="#afd2d3" stroke="#afd2d3" stroke-dasharray="null" rx="76" ry="54.5"/><ellipse cx="242" cy="316" fill="#5b5b5b" stroke="#5b5b5b" stroke-dasharray="null" rx="27" ry="17"/><ellipse cx="135.5" cy="320.5" fill="#faa" rx="37" ry="16"/><ellipse cx="349.5" cy="319" fill="#faa" rx="37" ry="16"/></g><g class="layer"><path fill="none" stroke="#5b5b5b" stroke-dasharray="null" stroke-linecap="round" stroke-opacity="null" stroke-width="10" d="M305.5 244h48">ghtght</path><path fill="none" stroke="#5b5b5b" stroke-dasharray="null" stroke-linecap="round" stroke-opacity="null" stroke-width="10" d="M135.5 241h48M135 305h48"/><ellipse cx="160" cy="274.5" fill="#5b5b5b" stroke="#5b5b5b" stroke-dasharray="null" rx="31" ry="33.5"/><ellipse cx="330.5" cy="275.5" fill="#5b5b5b" stroke="#5b5b5b" stroke-dasharray="null" rx="31" ry="33.5"/><ellipse cx="160" cy="264.5" fill="#fff" stroke="#fff" stroke-dasharray="null" rx="19" ry="17.5"/><ellipse cx="330.5" cy="266" fill="#fff" stroke="#fff" stroke-dasharray="null" rx="19" ry="18">ght</ellipse><path fill="none" stroke="#5b5b5b" stroke-dasharray="null" stroke-linecap="round" stroke-opacity="null" stroke-width="10" d="M306.5 305h48"/></g><g class="layer"><path fill="#5b5b5b" fill-opacity="null" stroke="#5b5b5b" stroke-dasharray="null" stroke-linecap="round" stroke-opacity="null" d="m148.79 204.99 33.86 12.97h0c4.43 1.7 6.32 6.34 4.21 10.36-2.11 4.03-7.41 5.91-11.84 4.22l-33.86-12.97h0c-4.43-1.7-6.32-6.34-4.21-10.36 2.11-4.03 7.41-5.91 11.84-4.22zM301.23 216.316l30.905-15.887h0c4.056-2.085 8.997-.52 11.06 3.49 2.061 4.011.448 8.945-3.598 11.025L308.69 230.83h0c-4.056 2.085-8.997.52-11.06-3.49-2.061-4.011-.448-8.945 3.599-11.025z"/></g><g class="layer"><path fill="#5b5b5b" fill-opacity="null" stroke="#5b5b5b" stroke-dasharray="null" stroke-linecap="round" stroke-opacity="null" d="M214.051 383.88h0c.188-16.499 13.319-29.73 29.338-29.548s28.846 13.709 28.658 30.208h0c-6.742-9.478-17.419-15.14-28.828-15.27-11.41-.129-22.211 5.279-29.168 14.61z"/></g></svg>
