<?xml version="1.0"?>
<svg width="500" height="500" xmlns="http://www.w3.org/2000/svg" xmlns:svg="http://www.w3.org/2000/svg">

 <title>emoji_angry</title>
 <g class="layer">
  <title>Layer 1</title>
  <ellipse cx="91" cy="155" fill="#f5f5f5" id="ear_left" rx="63" ry="64" stroke="#afd2d3" stroke-dasharray="null" stroke-width="5"/>
  <ellipse cx="409.5" cy="154" fill="#f5f5f5" id="ear_right" rx="63" ry="64" stroke="#afd2d3" stroke-dasharray="null" stroke-width="5"/>
  <ellipse cx="100.5" cy="164.5" fill="#afd2d3" id="bg_ear_left" rx="43" ry="42.5" stroke="#afd2d3" stroke-dasharray="null"/>
  <ellipse cx="397.5" cy="167" fill="#afd2d3" id="svg_11" rx="43" ry="42.5" stroke="#afd2d3" stroke-dasharray="null"/>
 </g>
 <g class="layer">
  <title>head</title>
  <ellipse cx="245.5" cy="274" fill="#f5f5f5" id="base" rx="172.5" ry="167" stroke="#afd2d3" stroke-width="5"/>
  <ellipse cx="244" cy="359.5" fill="#afd2d3" id="bg_mouth" rx="76" ry="54.5" stroke="#afd2d3" stroke-dasharray="null"/>
  <ellipse cx="242" cy="316" fill="#5b5b5b" id="svg_12" rx="27" ry="17" stroke="#5b5b5b" stroke-dasharray="null"/>
  <ellipse cx="135.5" cy="320.5" fill="#ffaaaa" id="blush_left" rx="37" ry="16" stroke="#5b5b5b" stroke-dasharray="null" stroke-linecap="round" stroke-opacity="null" stroke-width="0"/>
  <ellipse cx="349.5" cy="319" fill="#ffaaaa" id="blush_right" rx="37" ry="16" stroke="#5b5b5b" stroke-dasharray="null" stroke-linecap="round" stroke-opacity="null" stroke-width="0"/>
 </g>
 <g class="layer" display="inline">
  <title>eyes</title>
  <ellipse cx="160" cy="277" fill="#5b5b5b" id="eye_left" rx="31" ry="40" stroke="#5b5b5b" stroke-dasharray="null"/>
  <ellipse cx="330.5" cy="278" fill="#5b5b5b" id="eye_right" rx="31" ry="40" stroke="#5b5b5b" stroke-dasharray="null"/>
  <ellipse cx="160" cy="262" fill="#ffffff" id="highlight_eye_left" rx="19" ry="20" stroke="#ffffff" stroke-dasharray="null"/>
  <ellipse cx="330.5" cy="264" fill="#ffffff" id="highlight_eye_r" rx="19" ry="20" stroke="#ffffff" stroke-dasharray="null">ght</ellipse>
 </g>
 <g class="layer">
  <title>eyebrows</title>
  <path d="m151.09,217.55l30.63,0l0,0c4.01,0 7.26,3.45 7.26,7.71c0,4.26 -3.25,7.71 -7.26,7.71l-30.63,0l0,0c-4.01,0 -7.26,-3.45 -7.26,-7.71c0,-4.26 3.25,-7.71 7.26,-7.71z" fill="#5b5b5b" fill-opacity="null" id="eyebrow_left" stroke="#5b5b5b" stroke-dasharray="null" stroke-linecap="round" stroke-opacity="null" transform="matrix(1, 0, 0, 1, 0, 0) rotate(24.1162, 166.402, 225.26)"/>
  <path d="m305.44,216.13l32.94,0l0,0c4.32,0 7.81,3.35 7.81,7.49c0,4.14 -3.5,7.49 -7.81,7.49l-32.94,0l0,0c-4.32,0 -7.81,-3.35 -7.81,-7.49c0,-4.14 3.5,-7.49 7.81,-7.49z" fill="#5b5b5b" fill-opacity="null" id="eyebrow_right" stroke="#5b5b5b" stroke-dasharray="null" stroke-linecap="round" stroke-opacity="null" transform="rotate(-27.2055, 321.915, 223.624)"/>
 </g>
 <g class="layer">
  <title>mouth</title>
  <path d="m224.85,355.21l39.72,0l0,0c5.2,0 9.42,4.48 9.42,10c0,5.52 -4.22,10 -9.42,10l-39.72,0l0,0c-5.2,0 -9.42,-4.48 -9.42,-10c0,-5.52 4.22,-10 9.42,-10z" fill="#5b5b5b" fill-opacity="null" id="mouth" stroke="#5b5b5b" stroke-dasharray="null" stroke-linecap="round" stroke-opacity="null"/>
 </g>
</svg>