<?xml version="1.0"?>
<svg width="500" height="500" xmlns="http://www.w3.org/2000/svg" xmlns:svg="http://www.w3.org/2000/svg">

 <title>emoji_fear</title>
 <g class="layer">
  <title>Layer 1</title>
  <ellipse cx="91" cy="155" fill="#f5f5f5" id="ear_left" rx="63" ry="64" stroke="#afd2d3" stroke-dasharray="null" stroke-width="5"/>
  <ellipse cx="409.5" cy="154" fill="#f5f5f5" id="ear_right" rx="63" ry="64" stroke="#afd2d3" stroke-dasharray="null" stroke-width="5"/>
  <ellipse cx="100.5" cy="164.5" fill="#afd2d3" id="bg_ear_left" rx="43" ry="42.5" stroke="#afd2d3" stroke-dasharray="null"/>
  <ellipse cx="397.5" cy="167" fill="#afd2d3" id="svg_11" rx="43" ry="42.5" stroke="#afd2d3" stroke-dasharray="null"/>
 </g>
 <g class="layer">
  <title>head</title>
  <ellipse cx="245.5" cy="274" fill="#f5f5f5" id="base" rx="172.5" ry="167" stroke="#afd2d3" stroke-width="5"/>
  <ellipse cx="244" cy="359.5" fill="#afd2d3" id="bg_mouth" rx="76" ry="54.5" stroke="#afd2d3" stroke-dasharray="null"/>
  <ellipse cx="242" cy="316" fill="#5b5b5b" id="svg_12" rx="27" ry="17" stroke="#5b5b5b" stroke-dasharray="null"/>
  <ellipse cx="135.5" cy="320.5" fill="#ffaaaa" id="blush_left" rx="37" ry="16" stroke="#5b5b5b" stroke-dasharray="null" stroke-linecap="round" stroke-opacity="null" stroke-width="0"/>
  <ellipse cx="349.5" cy="319" fill="#ffaaaa" id="blush_right" rx="37" ry="16" stroke="#5b5b5b" stroke-dasharray="null" stroke-linecap="round" stroke-opacity="null" stroke-width="0"/>
 </g>
 <g class="layer" display="inline">
  <title>eyes</title>
  <ellipse cx="162.5" cy="272" fill="#5b5b5b" id="eye_left" rx="33.5" ry="45" stroke="#5b5b5b" stroke-dasharray="null" transform="matrix(1, 0, 0, 1, 0, 0)"/>
  <ellipse cx="327.5" cy="273" fill="#5b5b5b" id="eye_right" rx="34" ry="45" stroke="#5b5b5b" stroke-dasharray="null" transform="matrix(1, 0, 0, 1, 0, 0)"/>
  <ellipse cx="162" cy="267.5" fill="#ffffff" id="highlight_eye_left" rx="28" ry="35.5" stroke="#ffffff" stroke-dasharray="null" transform="matrix(1, 0, 0, 1, 0, 0)"/>
  <ellipse cx="327.5" cy="269.5" fill="#ffffff" id="highlight_eye_r" rx="28" ry="36.5" stroke="#ffffff" stroke-dasharray="null">ght</ellipse>
 </g>
 <g class="layer">
  <title>eyebrows</title>
  <path d="m136.82,166.09l32.99,-3.98l0,0c4.32,-0.52 8.27,2.78 8.83,7.37c0.55,4.59 -2.5,8.73 -6.82,9.25l-32.99,3.98l0,0c-4.32,0.52 -8.27,-2.78 -8.83,-7.37c-0.55,-4.59 2.5,-8.73 6.82,-9.25z" fill="#5b5b5b" fill-opacity="null" id="eyebrow_left" stroke="#5b5b5b" stroke-dasharray="null" stroke-linecap="round" stroke-opacity="null"/>
  <path d="m317.89,164.5l32.56,6.62l0,0c4.26,0.87 6.98,5.24 6.05,9.77c-0.92,4.53 -5.13,7.5 -9.39,6.63l-32.56,-6.62l0,0c-4.26,-0.87 -6.98,-5.24 -6.05,-9.77c0.92,-4.53 5.13,-7.5 9.39,-6.63z" fill="#5b5b5b" fill-opacity="null" id="eyebrow_right" stroke="#5b5b5b" stroke-dasharray="null" stroke-linecap="round" stroke-opacity="null" transform="matrix(1, 0, 0, 1, 0, 0) rotate(-8.82456, 332.504, 176.01)"/>
 </g>
 <g class="layer">
  <title>mouth</title>
  <path d="m254.98,394.46l0,0c-14.18,0 -25.69,-10.37 -25.69,-23.17c0,-12.8 11.5,-23.17 25.69,-23.17l0,0c-8.08,5.47 -12.84,14.05 -12.84,23.17c0,9.11 4.75,17.69 12.84,23.17z" fill="#5b5b5b" fill-opacity="null" id="mouth" stroke="#5b5b5b" stroke-dasharray="null" stroke-linecap="round" stroke-opacity="null" transform="rotate(90.6512, 242.133, 371.298)"/>
 </g>
</svg>