<svg xmlns="http://www.w3.org/2000/svg" width="500" height="500"><g class="layer"><ellipse cx="91" cy="155" fill="#f5f5f5" stroke="#afd2d3" stroke-dasharray="null" stroke-width="5" rx="63" ry="64"/><ellipse cx="409.5" cy="154" fill="#f5f5f5" stroke="#afd2d3" stroke-dasharray="null" stroke-width="5" rx="63" ry="64"/><ellipse cx="100.5" cy="164.5" fill="#afd2d3" stroke="#afd2d3" stroke-dasharray="null" rx="43" ry="42.5"/><ellipse cx="397.5" cy="167" fill="#afd2d3" stroke="#afd2d3" stroke-dasharray="null" rx="43" ry="42.5"/></g><g class="layer"><ellipse cx="245.5" cy="274" fill="#f5f5f5" stroke="#afd2d3" stroke-width="5" rx="172.5" ry="167"/><ellipse cx="244" cy="359.5" fill="#afd2d3" stroke="#afd2d3" stroke-dasharray="null" rx="76" ry="54.5"/><ellipse cx="242" cy="316" fill="#5b5b5b" stroke="#5b5b5b" stroke-dasharray="null" rx="27" ry="17"/><ellipse cx="135.5" cy="320.5" fill="#faa" rx="37" ry="16"/><ellipse cx="349.5" cy="319" fill="#faa" rx="37" ry="16"/></g><g class="layer"><ellipse cx="162.5" cy="272" fill="#5b5b5b" stroke="#5b5b5b" stroke-dasharray="null" rx="33.5" ry="45"/><ellipse cx="327.5" cy="273" fill="#5b5b5b" stroke="#5b5b5b" stroke-dasharray="null" rx="34" ry="45"/><ellipse cx="162" cy="267.5" fill="#fff" stroke="#fff" stroke-dasharray="null" rx="28" ry="35.5"/><ellipse cx="327.5" cy="269.5" fill="#fff" stroke="#fff" stroke-dasharray="null" rx="28" ry="36.5">ght</ellipse></g><g class="layer"><path fill="#5b5b5b" fill-opacity="null" stroke="#5b5b5b" stroke-dasharray="null" stroke-linecap="round" stroke-opacity="null" d="m136.82 166.09 32.99-3.98h0c4.32-.52 8.27 2.78 8.83 7.37.55 4.59-2.5 8.73-6.82 9.25l-32.99 3.98h0c-4.32.52-8.27-2.78-8.83-7.37-.55-4.59 2.5-8.73 6.82-9.25zM316.297 166.878l33.19 1.547h0c4.343.206 7.702 4.107 7.478 8.726-.215 4.618-3.92 8.198-8.262 7.992l-33.19-1.547h0c-4.343-.206-7.702-4.107-7.477-8.726.214-4.617 3.918-8.198 8.261-7.992z"/></g><g class="layer"><path fill="#5b5b5b" fill-opacity="null" stroke="#5b5b5b" stroke-dasharray="null" stroke-linecap="round" stroke-opacity="null" d="M218.826 383.88h0c.162-14.178 10.662-25.57 23.461-25.424 12.8.145 23.038 11.763 22.876 25.952h0c-5.377-8.142-13.903-13-23.022-13.103-9.11-.103-17.743 4.549-23.315 12.576z"/></g></svg>
