<svg xmlns="http://www.w3.org/2000/svg" width="500" height="500"><g class="layer"><ellipse cx="91" cy="155" fill="#f5f5f5" stroke="#afd2d3" stroke-dasharray="null" stroke-width="5" rx="63" ry="64"/><ellipse cx="409.5" cy="154" fill="#f5f5f5" stroke="#afd2d3" stroke-dasharray="null" stroke-width="5" rx="63" ry="64"/><ellipse cx="100.5" cy="164.5" fill="#afd2d3" stroke="#afd2d3" stroke-dasharray="null" rx="43" ry="42.5"/><ellipse cx="397.5" cy="167" fill="#afd2d3" stroke="#afd2d3" stroke-dasharray="null" rx="43" ry="42.5"/></g><g class="layer"><ellipse cx="245.5" cy="274" fill="#f5f5f5" stroke="#afd2d3" stroke-width="5" rx="172.5" ry="167"/><ellipse cx="244" cy="359.5" fill="#afd2d3" stroke="#afd2d3" stroke-dasharray="null" rx="76" ry="54.5"/><ellipse cx="242" cy="316" fill="#5b5b5b" stroke="#5b5b5b" stroke-dasharray="null" rx="27" ry="17"/><ellipse cx="135.5" cy="320.5" fill="#faa" rx="37" ry="16"/><ellipse cx="349.5" cy="319" fill="#faa" rx="37" ry="16"/></g><g class="layer"><ellipse cx="160" cy="277" fill="#5b5b5b" stroke="#5b5b5b" stroke-dasharray="null" rx="31" ry="40"/><ellipse cx="330.5" cy="278" fill="#5b5b5b" stroke="#5b5b5b" stroke-dasharray="null" rx="31" ry="40"/><ellipse cx="160" cy="262" fill="#fff" stroke="#fff" stroke-dasharray="null" rx="19" ry="20"/><ellipse cx="330.5" cy="264" fill="#fff" stroke="#fff" stroke-dasharray="null" rx="19" ry="20">ght</ellipse></g><g class="layer"><path fill="#5b5b5b" fill-opacity="null" stroke="#5b5b5b" stroke-dasharray="null" stroke-linecap="round" stroke-opacity="null" d="m139.01 219.31 32.72-10.58h0c4.28-1.38 9.11.73 10.79 4.73 1.67 4-.44 8.36-4.73 9.74l-32.72 10.58h0c-4.28 1.38-9.11-.73-10.79-4.73-1.67-4 .44-8.36 4.73-9.74zM313.253 208.753l31.578 9.374h0c4.14 1.23 6.533 5.434 5.355 9.403s-5.487 6.184-9.619 4.957l-31.578-9.374h0c-4.14-1.23-6.533-5.434-5.355-9.403s5.487-6.184 9.619-4.957z"/></g><g class="layer"><path fill="#5b5b5b" fill-opacity="null" stroke="#5b5b5b" stroke-dasharray="null" stroke-linecap="round" stroke-opacity="null" d="M214.051 383.88h0c.188-16.499 13.319-29.73 29.338-29.548s28.846 13.709 28.658 30.208h0c-6.742-9.478-17.419-15.14-28.828-15.27-11.41-.129-22.211 5.279-29.168 14.61z"/></g></svg>
