<?xml version="1.0"?>
<svg width="500" height="500" xmlns="http://www.w3.org/2000/svg" xmlns:svg="http://www.w3.org/2000/svg">

 <title>emoji_sad</title>
 <g class="layer">
  <title>Layer 1</title>
  <ellipse cx="91" cy="155" fill="#f5f5f5" id="ear_left" rx="63" ry="64" stroke="#afd2d3" stroke-dasharray="null" stroke-width="5"/>
  <ellipse cx="409.5" cy="154" fill="#f5f5f5" id="ear_right" rx="63" ry="64" stroke="#afd2d3" stroke-dasharray="null" stroke-width="5"/>
  <ellipse cx="100.5" cy="164.5" fill="#afd2d3" id="bg_ear_left" rx="43" ry="42.5" stroke="#afd2d3" stroke-dasharray="null"/>
  <ellipse cx="397.5" cy="167" fill="#afd2d3" id="svg_11" rx="43" ry="42.5" stroke="#afd2d3" stroke-dasharray="null"/>
 </g>
 <g class="layer">
  <title>head</title>
  <ellipse cx="245.5" cy="274" fill="#f5f5f5" id="base" rx="172.5" ry="167" stroke="#afd2d3" stroke-width="5"/>
  <ellipse cx="244" cy="359.5" fill="#afd2d3" id="bg_mouth" rx="76" ry="54.5" stroke="#afd2d3" stroke-dasharray="null"/>
  <ellipse cx="242" cy="316" fill="#5b5b5b" id="svg_12" rx="27" ry="17" stroke="#5b5b5b" stroke-dasharray="null"/>
  <ellipse cx="135.5" cy="320.5" fill="#ffaaaa" id="blush_left" rx="37" ry="16" stroke="#5b5b5b" stroke-dasharray="null" stroke-linecap="round" stroke-opacity="null" stroke-width="0"/>
  <ellipse cx="349.5" cy="319" fill="#ffaaaa" id="blush_right" rx="37" ry="16" stroke="#5b5b5b" stroke-dasharray="null" stroke-linecap="round" stroke-opacity="null" stroke-width="0"/>
 </g>
 <g class="layer" display="inline">
  <title>eyes</title>
  <ellipse cx="160" cy="277" fill="#5b5b5b" id="eye_left" rx="31" ry="40" stroke="#5b5b5b" stroke-dasharray="null"/>
  <ellipse cx="330.5" cy="278" fill="#5b5b5b" id="eye_right" rx="31" ry="40" stroke="#5b5b5b" stroke-dasharray="null"/>
  <ellipse cx="160" cy="262" fill="#ffffff" id="highlight_eye_left" rx="19" ry="20" stroke="#ffffff" stroke-dasharray="null"/>
  <ellipse cx="330.5" cy="264" fill="#ffffff" id="highlight_eye_r" rx="19" ry="20" stroke="#ffffff" stroke-dasharray="null">ght</ellipse>
 </g>
 <g class="layer">
  <title>eyebrows</title>
  <path d="m139.01,219.31l32.72,-10.58l0,0c4.28,-1.38 9.11,0.73 10.79,4.73c1.67,4 -0.44,8.36 -4.73,9.74l-32.72,10.58l0,0c-4.28,1.38 -9.11,-0.73 -10.79,-4.73c-1.67,-4 0.44,-8.36 4.73,-9.74z" fill="#5b5b5b" fill-opacity="null" id="eyebrow_left" stroke="#5b5b5b" stroke-dasharray="null" stroke-linecap="round" stroke-opacity="null"/>
  <path d="m310.44,213.13l32.94,0l0,0c4.32,0 7.81,3.35 7.81,7.49c0,4.14 -3.5,7.49 -7.81,7.49l-32.94,0l0,0c-4.32,0 -7.81,-3.35 -7.81,-7.49c0,-4.14 3.5,-7.49 7.81,-7.49z" fill="#5b5b5b" fill-opacity="null" id="eyebrow_right" stroke="#5b5b5b" stroke-dasharray="null" stroke-linecap="round" stroke-opacity="null" transform="rotate(16.5343, 326.91, 220.62)"/>
 </g>
 <g class="layer">
  <title>mouth</title>
  <path d="m258.16,398.28l0,0c-16.5,0 -29.88,-12.98 -29.88,-29c0,-16.02 13.38,-29 29.88,-29l0,0c-9.4,6.85 -14.94,17.59 -14.94,29c0,11.41 5.53,22.15 14.94,29z" fill="#5b5b5b" fill-opacity="null" id="mouth" stroke="#5b5b5b" stroke-dasharray="null" stroke-linecap="round" stroke-opacity="null" transform="rotate(90.6512, 243.224, 369.275)"/>
 </g>
</svg>