<svg xmlns="http://www.w3.org/2000/svg" width="500" height="500"><g class="layer"><ellipse cx="91" cy="155" fill="#f5f5f5" stroke="#afd2d3" stroke-dasharray="null" stroke-width="5" rx="63" ry="64"/><ellipse cx="409.5" cy="154" fill="#f5f5f5" stroke="#afd2d3" stroke-dasharray="null" stroke-width="5" rx="63" ry="64"/><ellipse cx="100.5" cy="164.5" fill="#afd2d3" stroke="#afd2d3" stroke-dasharray="null" rx="43" ry="42.5"/><ellipse cx="397.5" cy="167" fill="#afd2d3" stroke="#afd2d3" stroke-dasharray="null" rx="43" ry="42.5"/></g><g class="layer"><ellipse cx="245.5" cy="274" fill="#f5f5f5" stroke="#afd2d3" stroke-width="5" rx="172.5" ry="167"/><ellipse cx="244" cy="359.5" fill="#afd2d3" stroke="#afd2d3" stroke-dasharray="null" rx="76" ry="54.5"/><ellipse cx="242" cy="316" fill="#5b5b5b" stroke="#5b5b5b" stroke-dasharray="null" rx="27" ry="17"/><ellipse cx="135.5" cy="320.5" fill="#faa" rx="37" ry="16"/><ellipse cx="349.5" cy="319" fill="#faa" rx="37" ry="16"/></g><g class="layer"><ellipse cx="160" cy="277" fill="#5b5b5b" stroke="#5b5b5b" stroke-dasharray="null" rx="31" ry="40"/><ellipse cx="330.5" cy="278" fill="#5b5b5b" stroke="#5b5b5b" stroke-dasharray="null" rx="31" ry="40"/><ellipse cx="160" cy="262" fill="#fff" stroke="#fff" stroke-dasharray="null" rx="19" ry="20"/><ellipse cx="330.5" cy="264" fill="#fff" stroke="#fff" stroke-dasharray="null" rx="19" ry="20">ght</ellipse></g><g class="layer"><path fill="#5b5b5b" fill-opacity="null" stroke="#5b5b5b" stroke-dasharray="null" stroke-linecap="round" stroke-opacity="null" d="m136.818 184.089 32.99-3.978h0c4.32-.521 8.273 2.78 8.826 7.366s-2.503 8.733-6.821 9.253l-32.991 3.979h0c-4.32.52-8.273-2.78-8.826-7.367s2.503-8.732 6.822-9.253zM308.89 180.498l32.563 6.62h0c4.263.866 6.975 5.244 6.055 9.772-.92 4.527-5.127 7.499-9.39 6.632l-32.564-6.62h0c-4.262-.866-6.975-5.244-6.054-9.771s5.126-7.5 9.39-6.633z"/></g><g class="layer"><path fill="#5b5b5b" fill-opacity="null" stroke="#5b5b5b" stroke-dasharray="null" stroke-linecap="round" stroke-opacity="null" d="M272.14 354.194h0c.04 7.66-12.909 13.926-28.929 14.008s-29.031-6.062-29.07-13.712h0c6.872 4.325 17.625 6.84 29.035 6.782s22.137-2.683 28.964-7.078z"/></g></svg>
