<svg xmlns="http://www.w3.org/2000/svg" width="500" height="500"><g class="layer"><ellipse cx="91" cy="155" fill="#f5f5f5" stroke="#afd2d3" stroke-dasharray="null" stroke-width="5" rx="63" ry="64"/><ellipse cx="409.5" cy="154" fill="#f5f5f5" stroke="#afd2d3" stroke-dasharray="null" stroke-width="5" rx="63" ry="64"/><ellipse cx="100.5" cy="164.5" fill="#afd2d3" stroke="#afd2d3" stroke-dasharray="null" rx="43" ry="42.5"/><ellipse cx="397.5" cy="167" fill="#afd2d3" stroke="#afd2d3" stroke-dasharray="null" rx="43" ry="42.5"/></g><g class="layer"><ellipse cx="245.5" cy="274" fill="#f5f5f5" stroke="#afd2d3" stroke-width="5" rx="172.5" ry="167"/><ellipse cx="244" cy="359.5" fill="#afd2d3" stroke="#afd2d3" stroke-dasharray="null" rx="76" ry="54.5"/><ellipse cx="242" cy="316" fill="#5b5b5b" stroke="#5b5b5b" stroke-dasharray="null" rx="27" ry="17"/><ellipse cx="135.5" cy="320.5" fill="#faa" rx="37" ry="16"/><ellipse cx="349.5" cy="319" fill="#faa" rx="37" ry="16"/></g><g class="layer"><ellipse cx="160" cy="277" fill="#5b5b5b" stroke="#5b5b5b" stroke-dasharray="null" rx="31" ry="40"/><ellipse cx="330.5" cy="278" fill="#5b5b5b" stroke="#5b5b5b" stroke-dasharray="null" rx="31" ry="40"/><ellipse cx="160" cy="262" fill="#fff" stroke="#fff" stroke-dasharray="null" rx="19" ry="20"/><ellipse cx="330.5" cy="264" fill="#fff" stroke="#fff" stroke-dasharray="null" rx="19" ry="20">ght</ellipse></g><g class="layer"><path fill="#5b5b5b" fill-opacity="null" stroke="#5b5b5b" stroke-dasharray="null" stroke-linecap="round" stroke-opacity="null" d="m155.577 211.967 27.956 12.515h0c3.66 1.638 5.217 6.115 3.476 10.003s-6.116 5.71-9.776 4.07l-27.957-12.514h0c-3.66-1.639-5.216-6.115-3.476-10.004s6.117-5.709 9.777-4.07zM303.836 224.491l29.296-15.06h0c3.842-1.975 8.478-.59 10.37 3.091 1.893 3.682.312 8.262-3.521 10.232l-29.296 15.06h0c-3.842 1.975-8.478.591-10.37-3.09-1.893-3.683-.312-8.262 3.521-10.233z"/></g><g class="layer"><path fill="#5b5b5b" fill-opacity="null" stroke="#5b5b5b" stroke-dasharray="null" stroke-linecap="round" stroke-opacity="null" d="M224.85 355.21h39.72c5.2 0 9.42 4.48 9.42 10s-4.22 10-9.42 10h-39.72 0c-5.2 0-9.42-4.48-9.42-10s4.22-10 9.42-10z"/></g></svg>
